<?xml version="1.0" encoding="UTF-8" standalone="no"?>
<svg
   width="276.73044pt"
   height="276.02734pt"
   viewBox="0 0 276.73044 276.02734"
   version="1.1"
   id="svg4"
   xmlns="http://www.w3.org/2000/svg"
   xmlns:svg="http://www.w3.org/2000/svg">
  <defs
     id="defs4" />
  <g
     id="surface1"
     transform="translate(-1.7734379,-2.1054691)">
    <path
       style="fill:#0a2b63;fill-opacity:0;fill-rule:nonzero;stroke:none"
       d="M 278.50391,278.13281 H 1.773438 V 2.105469 H 278.50391 Z m 0,0"
       id="path1" />
    <path
       style="fill:#8eadea;fill-opacity:1;fill-rule:nonzero;stroke:none"
       d="m 222.17187,47.433594 h -90.34375 l 90.34375,74.207036 z m 0,0"
       id="path2" />
    <path
       style="fill:#ffffff;fill-opacity:1;fill-rule:nonzero;stroke:none"
       d="m 46.21875,230.5625 h 97.68359 L 46.21875,154.07422 Z m 0,0"
       id="path3" />
    <path
       style="fill:#ffffff;fill-opacity:1;fill-rule:nonzero;stroke:none"
       d="m 226.69141,151.05078 c -4.01172,-7.21094 -10.67579,-14.51562 -19.96094,-21.96094 L 108.49219,48.597656 c -6.6875,0.08594 -12.042971,0.449219 -16.140627,1.058594 -4.175782,0.679688 -8.417969,1.882813 -12.664063,3.496094 -10.921875,4.40625 -19.386719,10.988281 -25.445312,19.726562 -6.035157,8.664063 -9.050782,18.917969 -9.050782,30.660154 0,4.28125 0.625,8.82032 1.867188,13.71485 1.148437,4.85547 2.785156,9.35937 4.847656,13.46093 2.648438,4.95703 7.042969,10.73047 13.257813,17.3125 6.265625,6.86719 14.753906,14.74219 25.445312,23.54688 10.898435,9.30859 22.210935,18.26172 33.898435,26.83984 7.23047,5.28125 13.42188,9.76953 18.69141,13.47266 5.27734,3.71484 14.17578,9.94531 26.69531,18.67969 4.73438,-0.13672 8.77734,-0.3711 12.07422,-0.67579 2.95703,-0.30859 5.90625,-0.78515 8.83594,-1.51562 2.125,-0.46484 4.625,-1.30078 7.5625,-2.57031 10.67578,-4.31641 19.07031,-10.96485 25.18359,-19.94141 6.20703,-8.95312 9.29688,-19.03125 9.29688,-30.20703 0,-9.0625 -2.03516,-17.26563 -6.15625,-24.60547"
       id="path4" />
  </g>
</svg>
